<svg xmlns="http://www.w3.org/2000/svg" xmlns:xlink="http://www.w3.org/1999/xlink" xmlns:serif="http://www.serif.com/" width="40" height="40" viewBox="0 0 32 40" version="1.1" xml:space="preserve" style="" x="0px" y="0px" fill-rule="evenodd" clip-rule="evenodd" stroke-linejoin="round" stroke-miterlimit="2">
	<g transform="matrix(1,0,0,1,0,-52)">
		<g>
			<g transform="matrix(1.05356e-16,1.72059,-1,6.12323e-17,32,-135.985)">
				<path fill="#0033A0" d="M126.692,13L126.692,5C126.692,3.343 125.912,2 124.949,2L112.162,2C111.199,2 110.419,3.343 110.419,5L110.419,13C110.419,13.552 110.679,14 111,14C111.321,14 111.581,13.552 111.581,13C111.581,13 111.581,7.918 111.581,5C111.581,4.448 111.841,4 112.162,4C112.162,4 124.949,4 124.949,4C125.27,4 125.53,4.448 125.53,5L125.53,13C125.53,13.552 125.79,14 126.111,14C126.432,14 126.692,13.552 126.692,13Z" />
			</g>
			<g transform="matrix(1.07692,0,0,1.07692,-233.923,51.7692)">
				<path fill="#0033A0" d="M226.5,2.071C222.4,2.071 219.071,5.4 219.071,9.5C219.071,13.6 222.4,16.929 226.5,16.929C230.6,16.929 233.929,13.6 233.929,9.5C233.929,5.4 230.6,2.071 226.5,2.071ZM226.5,3.929C229.575,3.929 232.071,6.425 232.071,9.5C232.071,12.575 229.575,15.071 226.5,15.071C223.425,15.071 220.929,12.575 220.929,9.5C220.929,6.425 223.425,3.929 226.5,3.929Z" />
			</g>
			<g transform="matrix(1.06667,0,0,1,-229.733,52)">
				<path fill="#0033A0" d="M219.125,20L219.125,29C219.125,29.404 219.353,29.769 219.704,29.924C220.054,30.079 220.457,29.993 220.725,29.707L224.75,25.414C224.75,25.414 228.775,29.707 228.775,29.707C229.043,29.993 229.446,30.079 229.796,29.924C230.147,29.769 230.375,29.404 230.375,29L230.375,20C230.375,19.448 229.955,19 229.437,19C228.92,19 228.5,19.448 228.5,20L228.5,26.586C228.5,26.586 225.413,23.293 225.413,23.293C225.047,22.902 224.453,22.902 224.087,23.293L221,26.586C221,26.586 221,20 221,20C221,19.448 220.58,19 220.063,19C219.545,19 219.125,19.448 219.125,20Z" />
			</g>
		</g>
	</g>
</svg>
