<svg xmlns="http://www.w3.org/2000/svg" xmlns:xlink="http://www.w3.org/1999/xlink" aria-hidden="true" focusable="false" width="32" height="32" style="-ms-transform: rotate(360deg); -webkit-transform: rotate(360deg); transform: rotate(360deg);" preserveAspectRatio="xMidYMid meet" viewBox="0 0 32 32"><g transform="translate(32 0) scale(-1 1)"><path d="M16 30l-6.176-3.293A10.982 10.982 0 0 1 4 17V4a2.002 2.002 0 0 1 2-2h20a2.002 2.002 0 0 1 2 2v13a10.982 10.982 0 0 1-5.824 9.707zM6 4v13a8.985 8.985 0 0 0 4.766 7.942L16 27.733l5.234-2.79A8.985 8.985 0 0 0 26 17V4z" fill="#0033A0"/><path d="M16 25.277V6h8v10.805a7 7 0 0 1-3.7 6.173z" fill="#0033A0"/></g><rect x="0" y="0" width="32" height="32" fill="rgba(0, 0, 0, 0)" /></svg>