<svg xmlns="http://www.w3.org/2000/svg" xmlns:xlink="http://www.w3.org/1999/xlink" aria-hidden="true" focusable="false" width="32" height="32" style="-ms-transform: rotate(360deg); -webkit-transform: rotate(360deg); transform: rotate(360deg);" preserveAspectRatio="xMidYMid meet" viewBox="0 0 32 32"><path d="M17 22v-9h-4v2h2v7h-3v2h8v-2h-3z" fill="#0033a0"/><path d="M16 7a1.5 1.5 0 1 0 1.5 1.5A1.5 1.5 0 0 0 16 7z" fill="#0033a0"/><path d="M16 30a14 14 0 1 1 14-14a14 14 0 0 1-14 14zm0-26a12 12 0 1 0 12 12A12 12 0 0 0 16 4z" fill="#0033a0"/><rect x="0" y="0" width="32" height="32" fill="rgba(0, 0, 0, 0)" /></svg>