<svg xmlns="http://www.w3.org/2000/svg" xmlns:xlink="http://www.w3.org/1999/xlink" aria-hidden="true" focusable="false" width="25" height="25" style="-ms-transform: rotate(360deg); -webkit-transform: rotate(360deg); transform: rotate(360deg);" preserveAspectRatio="xMidYMid meet" viewBox="0 0 32 32"><path d="M16 4a5 5 0 1 1-5 5a5 5 0 0 1 5-5m0-2a7 7 0 1 0 7 7a7 7 0 0 0-7-7z" fill="#0033A0"/><path d="M26 30h-2v-5a5 5 0 0 0-5-5h-6a5 5 0 0 0-5 5v5H6v-5a7 7 0 0 1 7-7h6a7 7 0 0 1 7 7z" fill="#0033A0"/><rect x="0" y="0" width="32" height="32" fill="rgba(0, 0, 0, 0)" /></svg>