<svg xmlns="http://www.w3.org/2000/svg" xmlns:xlink="http://www.w3.org/1999/xlink" aria-hidden="true" focusable="false" width="25" height="25" style="-ms-transform: rotate(360deg); -webkit-transform: rotate(360deg); transform: rotate(360deg);" preserveAspectRatio="xMidYMid meet" viewBox="0 0 32 32"><path d="M24 14h-2V8a6 6 0 0 0-12 0v6H8a2 2 0 0 0-2 2v12a2 2 0 0 0 2 2h16a2 2 0 0 0 2-2V16a2 2 0 0 0-2-2zM12 8a4 4 0 0 1 8 0v6h-8zm12 20H8V16h16z" fill="#0033A0"/><rect x="0" y="0" width="32" height="32" fill="rgba(0, 0, 0, 0)" /></svg>